<?xml version="1.0" standalone="no"?>
<!DOCTYPE svg PUBLIC "-//W3C//DTD SVG 20010904//EN"
 "http://www.w3.org/TR/2001/REC-SVG-20010904/DTD/svg10.dtd">
<svg version="1.0" xmlns="http://www.w3.org/2000/svg"
 width="50.000000pt" height="50.000000pt" viewBox="0 0 50.000000 50.000000"
 preserveAspectRatio="xMidYMid meet">
<metadata>
Created by potrace 1.16, written by Peter Selinger 2001-2019
</metadata>
<g transform="translate(0.000000,50.000000) scale(0.100000,-0.100000)"
fill="#000000" stroke="none">
<path d="M120 480 c0 -16 -7 -20 -35 -20 -25 0 -44 -8 -60 -25 -25 -24 -25
-26 -25 -205 0 -179 0 -181 25 -205 21 -22 33 -25 95 -25 53 0 71 3 68 13 -3
7 -28 13 -64 15 -90 5 -94 11 -94 159 l0 123 235 0 235 0 0 50 c0 64 -30 100
-85 100 -28 0 -35 4 -35 20 0 11 -7 20 -15 20 -8 0 -15 -9 -15 -20 0 -19 -7
-20 -100 -20 -93 0 -100 1 -100 20 0 11 -7 20 -15 20 -8 0 -15 -9 -15 -20z
m328 -66 c14 -10 22 -25 22 -45 l0 -29 -220 0 -220 0 0 29 c0 55 23 61 220 61
143 0 180 -3 198 -16z"/>
<path d="M425 270 c-11 -5 -60 -48 -108 -98 -76 -76 -89 -95 -94 -130 l-6 -42
48 0 c47 0 50 2 141 92 80 78 94 97 94 124 0 44 -35 69 -75 54z"/>
</g>
</svg>
